<svg xmlns="http://www.w3.org/2000/svg" width="211.008" height="81.714" viewBox="0 0 211.008 81.714">
  <g id="logo-white" transform="translate(3.998 13.587)">
    <g id="Group_4" data-name="Group 4" transform="translate(58.36 14.375)">
      <g id="Group_1" data-name="Group 1" transform="translate(0.715 44.45)">
        <path id="Path_1" data-name="Path 1" d="M90.12,100.049V92.97h2.5a4.049,4.049,0,0,1,1.481.269,3.671,3.671,0,0,1,1.186.741,3.359,3.359,0,0,1,.787,1.127,3.524,3.524,0,0,1,.282,1.416,3.417,3.417,0,0,1-.282,1.4,3.381,3.381,0,0,1-.78,1.121,3.642,3.642,0,0,1-1.186.741,3.975,3.975,0,0,1-1.488.269h-2.5Zm2.517-6.129H91.182V99.1h1.455a2.689,2.689,0,0,0,1.029-.2,2.512,2.512,0,0,0,.832-.544,2.648,2.648,0,0,0,.551-.819,2.512,2.512,0,0,0,.2-1.016,2.575,2.575,0,0,0-.2-1.029,2.71,2.71,0,0,0-.551-.832,2.512,2.512,0,0,0-.832-.544A2.689,2.689,0,0,0,92.637,93.92Z" transform="translate(-90.12 -90.853)" fill="#fff"/>
        <path id="Path_2" data-name="Path 2" d="M101.35,100.049V92.97h5.218V93.9h-4.156v2.124h2.733v.911h-2.733v2.183h4.2v.931Z" transform="translate(-93.989 -90.853)" fill="#fff"/>
        <path id="Path_3" data-name="Path 3" d="M114.672,99.548l-2.642-5.257v5.768h-.99V92.98h1.416l2.229,4.523L116.9,92.98h1.416v7.079h-1V94.284Z" transform="translate(-97.327 -90.856)" fill="#fff"/>
        <path id="Path_4" data-name="Path 4" d="M131.241,96.455a3.614,3.614,0,0,1-.288,1.429,3.5,3.5,0,0,1-.787,1.16,3.807,3.807,0,0,1-1.173.774,3.864,3.864,0,0,1-2.9,0,3.593,3.593,0,0,1-1.167-.774,3.652,3.652,0,0,1-.78-1.16,3.627,3.627,0,0,1,1.947-4.792,3.864,3.864,0,0,1,2.9,0,3.621,3.621,0,0,1,1.173.773,3.78,3.78,0,0,1,.787,1.16A3.614,3.614,0,0,1,131.241,96.455Zm-1.082,0a2.68,2.68,0,0,0-.2-1.055,2.8,2.8,0,0,0-.551-.852,2.462,2.462,0,0,0-.833-.564,2.575,2.575,0,0,0-1.029-.2,2.521,2.521,0,0,0-1.023.2,2.57,2.57,0,0,0-.826.564,2.687,2.687,0,0,0-.551.852,2.827,2.827,0,0,0-.2,1.055,2.709,2.709,0,0,0,.754,1.9,2.594,2.594,0,0,0,1.849.774,2.579,2.579,0,0,0,1.029-.21,2.632,2.632,0,0,0,.833-.564,2.586,2.586,0,0,0,.551-.846A2.777,2.777,0,0,0,130.159,96.455Z" transform="translate(-101.743 -90.798)" fill="#fff"/>
        <path id="Path_5" data-name="Path 5" d="M136.85,100.049V92.97h1.062v3.3l3.428-3.3h1.337l-3.651,3.422,3.776,3.664h-1.455l-3.428-3.369v3.369H136.85Z" transform="translate(-106.218 -90.853)" fill="#fff"/>
        <path id="Path_6" data-name="Path 6" d="M146.88,100.049V92.97H150.1a2.467,2.467,0,0,1,1.7.583,1.94,1.94,0,0,1,.656,1.514,1.917,1.917,0,0,1-.393,1.206,2.178,2.178,0,0,1-1.062.734l1.58,3.042H151.41l-1.468-2.9h-1.993v2.9ZM150,93.9h-2.065v2.366H150a1.483,1.483,0,0,0,1-.328,1.152,1.152,0,0,0,0-1.711A1.483,1.483,0,0,0,150,93.9Z" transform="translate(-109.673 -90.853)" fill="#fff"/>
        <path id="Path_7" data-name="Path 7" d="M156.12,100.049l2.93-7.079H160.3l2.891,7.079h-1.154l-.819-2.071h-3.166l-.832,2.071Zm2.288-2.95h2.471l-1.232-3.107Z" transform="translate(-112.857 -90.853)" fill="#fff"/>
        <path id="Path_8" data-name="Path 8" d="M167.35,98.828l.649-.747a4.287,4.287,0,0,0,1.18.832,2.983,2.983,0,0,0,1.259.275,2.127,2.127,0,0,0,1.239-.334,1,1,0,0,0,.479-.852.858.858,0,0,0-.334-.721,2.552,2.552,0,0,0-1.1-.387l-1.186-.19a2.631,2.631,0,0,1-1.449-.623,1.61,1.61,0,0,1-.479-1.219,1.75,1.75,0,0,1,.721-1.475,2.987,2.987,0,0,1,1.894-.557,4.813,4.813,0,0,1,1.508.249,4.267,4.267,0,0,1,1.344.715l-.59.806a4.919,4.919,0,0,0-1.154-.656,3.16,3.16,0,0,0-1.16-.216,1.915,1.915,0,0,0-1.114.295.891.891,0,0,0-.426.76.786.786,0,0,0,.295.662,2.279,2.279,0,0,0,.97.341l1.141.184a3.225,3.225,0,0,1,1.645.662,1.666,1.666,0,0,1,.531,1.3,1.937,1.937,0,0,1-.2.891,2.058,2.058,0,0,1-.57.688,2.735,2.735,0,0,1-.9.439,3.992,3.992,0,0,1-1.154.157,4.164,4.164,0,0,1-1.639-.334A4.382,4.382,0,0,1,167.35,98.828Z" transform="translate(-116.725 -90.804)" fill="#fff"/>
        <path id="Path_9" data-name="Path 9" d="M178.28,90.92a.609.609,0,0,1-.433-.17.564.564,0,0,1-.177-.426.55.55,0,0,1,.177-.42.653.653,0,0,1,.865,0,.55.55,0,0,1,.177.42.574.574,0,0,1-.177.426A.609.609,0,0,1,178.28,90.92Zm-.538,8.017V91.857H178.8v7.079Z" transform="translate(-120.28 -89.74)" fill="#fff"/>
        <path id="Path_10" data-name="Path 10" d="M186.651,100.049,183.76,92.97H184.9L187.3,99l2.438-6.031h1.095l-2.937,7.079Z" transform="translate(-122.378 -90.853)" fill="#fff"/>
        <path id="Path_11" data-name="Path 11" d="M195.65,100.049V92.97h5.218V93.9h-4.156v2.124h2.733v.911h-2.733v2.183h4.2v.931Z" transform="translate(-126.474 -90.853)" fill="#fff"/>
        <path id="Path_12" data-name="Path 12" d="M207.49,100.049l2.93-7.079h1.245l2.891,7.079H213.4l-.819-2.071h-3.166l-.832,2.071Zm2.281-2.95h2.465L211,93.993Z" transform="translate(-130.553 -90.853)" fill="#fff"/>
        <path id="Path_13" data-name="Path 13" d="M216.51,93.914V92.97h6.037v.944h-2.491v6.142h-1.062V93.914Z" transform="translate(-133.661 -90.853)" fill="#fff"/>
        <path id="Path_14" data-name="Path 14" d="M227.08,100.049V92.97h1.062v7.079Z" transform="translate(-137.302 -90.853)" fill="#fff"/>
        <path id="Path_15" data-name="Path 15" d="M230.91,100.049V92.97h1.062v6.142h4.077v.944H230.91Z" transform="translate(-138.621 -90.853)" fill="#fff"/>
        <path id="Path_16" data-name="Path 16" d="M240.39,100.049V92.97h1.062v7.079Z" transform="translate(-141.887 -90.853)" fill="#fff"/>
        <path id="Path_17" data-name="Path 17" d="M247.841,99.548,245.2,94.291v5.768h-.99V92.98h1.416l2.222,4.523,2.216-4.523h1.416v7.079h-1V94.284Z" transform="translate(-143.203 -90.856)" fill="#fff"/>
        <path id="Path_18" data-name="Path 18" d="M260.72,100.049V92.97H264a2.367,2.367,0,0,1,1.672.59,1.994,1.994,0,0,1,.642,1.534,1.935,1.935,0,0,1-.649,1.514,2.42,2.42,0,0,1-1.672.59h-2.216v2.851Zm3.166-6.149h-2.1v2.4h2.1a1.425,1.425,0,0,0,.983-.328,1.1,1.1,0,0,0,.367-.872,1.109,1.109,0,0,0-.367-.872A1.425,1.425,0,0,0,263.886,93.9Z" transform="translate(-148.891 -90.853)" fill="#fff"/>
        <path id="Path_19" data-name="Path 19" d="M268.24,100.049l2.93-7.079h1.245l2.891,7.079h-1.154l-.819-2.071h-3.166l-.832,2.071Zm2.288-2.95h2.465l-1.232-3.107Z" transform="translate(-151.481 -90.853)" fill="#fff"/>
        <path id="Path_20" data-name="Path 20" d="M280.14,100.049V92.97h3.219a2.467,2.467,0,0,1,1.7.583,1.941,1.941,0,0,1,.655,1.514,1.917,1.917,0,0,1-.393,1.206,2.178,2.178,0,0,1-1.062.734l1.58,3.042H284.67l-1.468-2.9h-1.993v2.9Zm3.127-6.149H281.2v2.366h2.065a1.483,1.483,0,0,0,1-.328,1.152,1.152,0,0,0,0-1.711A1.5,1.5,0,0,0,283.267,93.9Z" transform="translate(-155.581 -90.853)" fill="#fff"/>
        <path id="Path_21" data-name="Path 21" d="M289.21,93.914V92.97h6.037v.944h-2.491v6.142h-1.062V93.914Z" transform="translate(-158.705 -90.853)" fill="#fff"/>
        <path id="Path_22" data-name="Path 22" d="M300.28,90.92a.609.609,0,0,1-.433-.17.564.564,0,0,1-.177-.426.55.55,0,0,1,.177-.42.653.653,0,0,1,.865,0,.549.549,0,0,1,.177.42.574.574,0,0,1-.177.426A.621.621,0,0,1,300.28,90.92Zm-.538,8.017V91.857H300.8v7.079Z" transform="translate(-162.309 -89.74)" fill="#fff"/>
        <path id="Path_23" data-name="Path 23" d="M302.64,98.828l.649-.747a4.288,4.288,0,0,0,1.18.832,2.983,2.983,0,0,0,1.259.275,2.127,2.127,0,0,0,1.239-.334,1,1,0,0,0,.479-.852.858.858,0,0,0-.334-.721,2.552,2.552,0,0,0-1.1-.387l-1.18-.19a2.631,2.631,0,0,1-1.449-.623,1.634,1.634,0,0,1-.479-1.219,1.767,1.767,0,0,1,.721-1.475,3.027,3.027,0,0,1,1.894-.557,4.812,4.812,0,0,1,1.508.249,4.267,4.267,0,0,1,1.344.715l-.583.806a4.92,4.92,0,0,0-1.154-.656,3.3,3.3,0,0,0-1.16-.216,1.915,1.915,0,0,0-1.114.295.89.89,0,0,0-.426.76.786.786,0,0,0,.295.662,2.279,2.279,0,0,0,.97.341l1.141.184a3.225,3.225,0,0,1,1.645.662,1.666,1.666,0,0,1,.531,1.3,1.938,1.938,0,0,1-.2.891,2.058,2.058,0,0,1-.57.688,2.734,2.734,0,0,1-.9.439,4.024,4.024,0,0,1-1.154.157,4.164,4.164,0,0,1-1.639-.334A4.366,4.366,0,0,1,302.64,98.828Z" transform="translate(-163.332 -90.804)" fill="#fff"/>
        <path id="Path_24" data-name="Path 24" d="M313.56,90.92a.609.609,0,0,1-.433-.17.564.564,0,0,1-.177-.426.55.55,0,0,1,.177-.42.653.653,0,0,1,.865,0,.55.55,0,0,1,.177.42.574.574,0,0,1-.177.426A.609.609,0,0,1,313.56,90.92Zm-.531,8.017V91.857h1.062v7.079Z" transform="translate(-166.883 -89.74)" fill="#fff"/>
      </g>
      <g id="Group_3" data-name="Group 3">
        <path id="Path_25" data-name="Path 25" d="M89.03,52.6h3.632V28.42H89.03V21.93h17.03c13.641,0,18.82,8.037,18.82,18.282,0,9.472-5,18.879-19,18.879H89.03Zm15.9,0c8.1,0,10.3-5.421,10.3-12.147,0-6.673-2.085-12.029-9.944-12.029h-3.455V52.6Z" transform="translate(-89.03 -21.93)" fill="#fff"/>
        <path id="Path_26" data-name="Path 26" d="M254.84,59.094V52.6h2.976L267.1,28.43h-3.691V21.94h16.794l11.675,30.671H294.8V59.1H278.478v-6.49h3.75l-1.488-4.169h-13.1l-1.429,4.169h3.454V59.1H254.84Zm14.769-16.853h9.111l-2.261-6.608c-.832-2.445-1.665-4.884-2.143-6.968h-.177a60.868,60.868,0,0,1-2.143,6.968Z" transform="translate(-146.15 -21.933)" fill="#fff"/>
        <g id="Group_2" data-name="Group 2" transform="translate(39.422)">
          <path id="Path_27" data-name="Path 27" d="M178.412,47.3V59.091H149.17V52.6H152.8V28.42H149.17V21.93h29.065V33.185h-7.447V28.42h-8.935v8.515h10.121v6.372H161.854v9.289h9.053v-5.3h7.506Z" transform="translate(-149.17 -21.93)" fill="#fff"/>
          <path id="Path_28" data-name="Path 28" d="M236.576,28.42,225.734,59.091H214.892L204.47,28.42h-3.16V21.93h16.617v6.49h-3.992l4.89,15.844c.833,2.681,1.724,5.893,2.026,7.388h.236c.295-1.488,1.252-4.766,2.026-7.388l4.825-15.844h-3.992V21.93h15.9v6.49Z" transform="translate(-167.132 -21.93)" fill="#fff"/>
        </g>
      </g>
    </g>
    <path id="Path_29" data-name="Path 29" d="M50,44.511a27.851,27.851,0,0,0-2.63-7.439C45.378,33.021,31.411,12.16,27.221,3.905,26.566,2.623,25.91,1.333,25.232,0c-.6,1.18-1.151,2.324-1.749,3.446C20.3,9.377,7.986,28.314,5.079,33.319a41.5,41.5,0,0,0-3.9,8.4A27.559,27.559,0,0,0,.5,55.01,24.032,24.032,0,0,0,9,69.626a24.536,24.536,0,0,0,13.916,5.916l.743-20.991-.066-.066A14.225,14.225,0,0,1,10.376,40.3h0A14.23,14.23,0,0,1,24.591,53.866l.015.015-.015.015c.007.1.007.2.007.3l.007.007.277,8.037a15.465,15.465,0,0,1,15.17-12.459h0A15.461,15.461,0,0,1,25.21,65.225l-.219.219.35,10.171.561-.007a26.182,26.182,0,0,0,4.415-.568c8.656-1.829,14.7-7.016,18.222-15.126a23.461,23.461,0,0,0,1.851-8.466A33.488,33.488,0,0,0,50,44.511Z" transform="translate(-4 -7.587)" fill="#fff"/>
    <text id="BİN_DERDE" data-name="BİN DERDE" transform="translate(107.002 6.413)" fill="#fff" stroke="#fff" stroke-width="1" font-size="18" font-family="Poppins-Bold, Poppins" font-weight="700" letter-spacing="0.05em"><tspan x="-49.554" y="0">BİN DERDE</tspan></text>
  </g>
</svg>
