<svg id="Group_162507" data-name="Group 162507" xmlns="http://www.w3.org/2000/svg" xmlns:xlink="http://www.w3.org/1999/xlink" width="670.974" height="299.008" viewBox="0 0 670.974 299.008">
  <defs>
    <clipPath id="clip-path">
      <rect id="Rectangle_1718" data-name="Rectangle 1718" width="670.974" height="299.008" fill="none" stroke="#fff" stroke-width="3"/>
    </clipPath>
  </defs>
  <g id="Group_162497" data-name="Group 162497" clip-path="url(#clip-path)">
    <path id="Path_2232" data-name="Path 2232" d="M136.6,123.255c-1.239-7.108-3.968-13.7-7.127-20.133C124.087,92.157,86.279,35.7,74.93,13.36,73.163,9.879,71.39,6.4,69.552,2.78c-1.624,3.193-3.115,6.3-4.741,9.321C56.188,28.146,22.855,79.418,14.99,92.956A112.461,112.461,0,0,0,4.431,115.687C.725,127.5.468,139.578,2.621,151.667a65.1,65.1,0,0,0,22.99,39.568c11.421,9.508,24.043,14.922,37.677,16.016l2-56.821-.183-.183a38.51,38.51,0,0,1-35.774-38.406h0A38.515,38.515,0,0,1,67.8,148.556l.046.048-.046.045c.015.266.017.536.024.8l.022.024.752,21.748A41.871,41.871,0,0,1,109.662,137.5h0v0a41.857,41.857,0,0,1-40.174,41.809l-.592.592.954,27.534,1.515-.02a73.441,73.441,0,0,0,11.949-1.531c23.437-4.948,39.79-18.994,49.316-40.943a63.579,63.579,0,0,0,5-22.921A88.443,88.443,0,0,0,136.6,123.255Z" transform="translate(0.051 0.113)" fill="none" stroke="#fff" stroke-miterlimit="10" stroke-width="3"/>
    <path id="Path_2233" data-name="Path 2233" d="M67.187,203.086s39.158,2.757,60.26-37.091c19.151-36.169,189.2-105.059,256.856,7.364C421.968,235.945,547.439,290.936,668.23,293.39" transform="translate(2.721 4.526)" fill="none" stroke="#fff" stroke-miterlimit="10" stroke-width="3"/>
  </g>
</svg>
